<svg xmlns="http://www.w3.org/2000/svg" width="635" height="585" viewBox="0 0 635 585" version="1.1"><path d="M 98 465.862 C 98 474.477, 97.200 480, 95.951 480 C 95.512 480, 93.346 476.742, 91.137 472.760 C 88.619 468.220, 86.930 466.075, 86.608 467.010 C 75.595 498.960, 77.683 517.118, 93.631 528.090 C 99.673 532.247, 103.484 533.235, 108.121 531.846 C 111.262 530.905, 112.129 530.986, 113.493 532.350 C 114.959 533.816, 115.472 533.830, 118.682 532.488 C 120.641 531.670, 122.414 531, 122.622 531 C 122.830 531, 123 530.507, 123 529.903 C 123 529.300, 124.689 526.888, 126.753 524.543 C 128.817 522.199, 131.571 518.147, 132.873 515.540 C 134.932 511.418, 135.185 509.738, 134.812 502.650 C 134.454 495.828, 133.845 493.489, 131.077 488.296 C 129.258 484.883, 126.244 480.309, 124.379 478.130 C 120.968 474.144, 110.143 465.589, 102.250 460.640 L 98 457.975 98 465.862" stroke="none" fill="#767070" fill-rule="evenodd"/><path d="M 321.137 496.497 C 318.608 499.377, 318 500.948, 318 504.601 C 318 507.093, 318.463 509.997, 319.030 511.055 C 320.433 513.677, 325.201 515.994, 331.117 516.929 C 335.816 517.672, 336.013 517.612, 335.401 515.604 C 333.653 509.867, 326.358 493.619, 325.384 493.295 C 324.773 493.091, 322.862 494.532, 321.137 496.497 M 330.250 527.566 C 327.913 528.967, 325.993 530.200, 325.985 530.307 C 325.977 530.413, 325.345 532.294, 324.582 534.488 C 322.132 541.528, 325.128 544.596, 336.397 546.589 L 340.295 547.278 339.686 542.389 C 339.351 539.700, 338.776 534.688, 338.409 531.250 C 337.634 523.994, 336.822 523.627, 330.250 527.566 M 334.008 558.492 C 328.457 564.147, 327.938 568.830, 332.433 572.696 C 334.155 574.177, 335.627 574.773, 336.185 574.215 C 336.917 573.483, 339.981 557.837, 339.996 554.750 C 340.005 553.092, 338.203 554.217, 334.008 558.492 M 419.302 555.501 C 415.782 557.966, 415.555 561.958, 418.600 567.828 C 420.744 571.959, 421.786 573, 423.779 573 L 426.275 573 425.569 564.293 C 425.180 559.504, 424.642 555.229, 424.372 554.793 C 423.618 553.573, 421.664 553.846, 419.302 555.501 M 394.083 557.388 C 389.947 558.882, 384.748 564.657, 383.305 569.357 C 382.281 572.694, 382.341 572.818, 385.249 573.400 C 390.392 574.428, 412 574.093, 412 572.985 C 412 570.409, 405.386 560.655, 402.146 558.453 C 400.160 557.104, 398.303 556.034, 398.018 556.076 C 397.733 556.118, 395.962 556.708, 394.083 557.388" stroke="none" fill="#f2f2f2" fill-rule="evenodd"/><path d="M 146 101.303 C 134.097 104.675, 121.455 113.940, 114.973 124.043 C 113.213 126.786, 110.563 132.961, 109.085 137.765 L 106.397 146.500 95.948 147.153 C 60.205 149.385, 38.177 159.272, 20.826 180.873 C 13.539 189.944, 9.385 198.854, 6.081 212.500 C 2.216 228.466, 1.512 235.943, 1.607 260 C 1.694 281.738, 1.902 284.376, 4.384 295.176 C 5.860 301.598, 8.823 311.775, 10.970 317.792 C 15.648 330.908, 27.783 357.192, 32.734 364.936 C 41.378 378.453, 62.771 400.558, 73.282 406.831 C 76.352 408.662, 82.606 411.804, 87.181 413.813 C 95.125 417.300, 96.087 417.480, 108.500 417.810 C 120.584 418.132, 122.486 417.913, 135.500 414.705 C 144.924 412.382, 152.605 409.744, 159 406.634 C 168.415 402.057, 185.269 390.302, 196.736 380.317 C 202.537 375.265, 202.737 375.180, 204.594 376.971 C 206.912 379.206, 230.918 392.903, 240.245 397.312 C 243.954 399.065, 246.989 400.725, 246.989 401 C 246.988 401.616, 232.614 412.550, 221.906 420.080 C 209.117 429.073, 198.601 437.658, 193.374 443.374 C 168.145 470.960, 161 485.869, 161 510.929 L 161 522.538 155.177 525.739 C 147.547 529.934, 138.149 532.156, 133.484 530.868 C 131.568 530.339, 130 529.486, 130 528.973 C 130 528.460, 131.807 525.669, 134.016 522.770 C 142.484 511.659, 143.070 500.314, 135.946 485.387 C 131.256 475.559, 119.965 464.404, 103.426 453.258 C 100.085 451.006, 95.894 447.505, 94.114 445.477 C 92.333 443.449, 90.688 441.978, 90.458 442.208 C 90.228 442.439, 90.671 446.198, 91.442 450.564 C 92.214 454.929, 93.094 460.750, 93.398 463.500 L 93.950 468.500 89.370 459.750 C 86.851 454.938, 84.454 451, 84.044 451 C 83.633 451, 83.013 454.712, 82.665 459.250 C 82.318 463.788, 80.676 472, 79.017 477.500 C 72.509 499.071, 74.293 514.570, 84.596 525.975 C 89.910 531.857, 96.923 535.910, 103.916 537.142 C 109.004 538.038, 110.302 538.683, 111.438 540.880 C 113.628 545.114, 123.154 554.419, 127.278 556.350 C 137.040 560.923, 148.866 560.406, 159.361 554.947 L 165.222 551.899 168.602 555.849 C 170.462 558.021, 175.089 562.101, 178.886 564.915 C 199.854 580.460, 223.848 584.400, 296.138 584.171 C 320.903 584.092, 339.845 583.629, 341.327 583.066 C 342.730 582.532, 344.381 581.156, 344.996 580.008 C 346.111 577.925, 346.205 577.922, 387.832 578.615 C 419.323 579.140, 430.097 579.019, 431.776 578.120 C 433.740 577.069, 433.997 576.146, 433.974 570.215 C 433.945 562.733, 431.697 545.737, 427.068 518 C 421.853 486.747, 419.983 478.039, 415.257 463 C 412.751 455.025, 409.253 443.722, 407.484 437.882 C 405.714 432.042, 402.519 423.717, 400.383 419.382 C 398.247 415.047, 396.356 411.179, 396.179 410.788 C 396.003 410.396, 400.278 410.331, 405.679 410.644 C 423.785 411.693, 448.142 405.043, 471 392.810 C 482.754 386.520, 506.623 372, 514 366.652 C 533.381 352.603, 570.636 316.901, 581.986 301.500 C 609.327 264.400, 615.154 249.477, 617.119 211.528 C 617.782 198.731, 618.492 192.335, 619.301 191.880 C 628.444 186.729, 631.358 183.187, 633.641 174.443 C 635.308 168.058, 634.427 161.875, 631.058 156.336 C 627.216 150.019, 616.529 148.206, 605.500 152 C 602.303 153.100, 599.571 154, 599.430 154 C 599.289 154, 597.302 150.512, 595.014 146.250 C 587.640 132.511, 580.515 127.121, 569.330 126.821 C 562.452 126.636, 554.693 128.991, 549.294 132.902 C 545.390 135.730, 540.385 143.922, 537.994 151.397 C 536.067 157.423, 538.111 164.982, 543.081 170.206 C 545.237 172.472, 547 175.082, 547 176.006 C 547 182.782, 530.120 216.092, 522.154 225.034 C 514.201 233.963, 503.034 241.633, 491.779 245.897 C 489.191 246.878, 489.011 246.746, 488.096 243.214 C 485.662 233.812, 485.066 230.981, 483.945 223.500 C 482.364 212.948, 479.692 201.711, 477.259 195.381 C 469.896 176.222, 439.281 140.127, 417.305 124.694 C 408.329 118.391, 390.163 110.120, 378.154 106.869 C 373.944 105.729, 370.095 104.415, 369.599 103.948 C 369.086 103.463, 367.984 104.474, 367.036 106.299 C 365.559 109.141, 365.541 109.640, 366.877 110.750 C 367.705 111.438, 369.243 112, 370.295 112 C 371.348 112, 378.073 114.309, 385.240 117.132 C 407.245 125.798, 423.599 138.626, 444.354 163.500 C 464.004 187.050, 470.055 199.720, 473.487 224.500 C 473.868 227.250, 475.525 234.900, 477.170 241.500 C 480.009 252.891, 481.944 257.030, 484.405 256.976 C 485.289 256.957, 492.174 254.248, 498.624 251.382 C 499.244 251.107, 502.593 255.498, 506.103 261.191 C 513.312 272.882, 519.376 280, 522.127 280 C 524.927 280, 524.403 278, 520.566 274.042 C 517.697 271.084, 504 249.998, 504 248.540 C 504 248.289, 506.137 246.859, 508.750 245.362 C 511.363 243.865, 516.315 240.462, 519.755 237.799 L 526.011 232.958 532.672 238.609 C 539.079 244.044, 544.479 247.057, 550.189 248.383 C 553.867 249.237, 554.789 247.250, 551.325 245.934 C 544.686 243.409, 541.585 241.399, 535.424 235.628 L 528.883 229.500 533.046 224.515 C 535.335 221.773, 538.536 216.900, 540.159 213.686 C 542.980 208.096, 543.204 207.902, 545.304 209.242 C 556.705 216.514, 560.147 218.253, 561.154 217.246 C 561.930 216.470, 559.779 214.579, 553.543 210.556 C 548.762 207.472, 544.999 204.623, 545.181 204.224 C 545.363 203.826, 546.741 201.163, 548.244 198.307 C 551.856 191.442, 556 178.954, 556 174.936 C 556 172.587, 554.942 170.576, 552.062 167.452 C 545.650 160.495, 545.573 152.255, 551.823 142 C 553.983 138.457, 556.003 136.786, 561.323 134.142 C 567.121 131.262, 568.714 130.880, 572.543 131.454 C 579.431 132.487, 584.408 137.028, 590.680 148 C 598.216 161.185, 604.306 167.094, 607.287 164.113 C 608.069 163.331, 607.712 162.323, 606.016 160.517 C 603.334 157.662, 603.319 157.696, 607.899 156.148 C 616.939 153.094, 622.790 155.794, 625.012 164.044 C 626.307 168.855, 625.707 173.528, 623.001 179.696 C 621.575 182.947, 619.902 184.603, 615.580 187.042 C 612.511 188.774, 609.954 190.485, 609.898 190.845 C 609.842 191.205, 609.655 196.225, 609.482 202 C 609.309 207.775, 608.666 214.975, 608.054 218 C 607.442 221.025, 606.295 228.081, 605.505 233.680 C 602.651 253.908, 596.492 266.352, 574.169 297 C 567.044 306.783, 533.960 339.700, 517.854 353.032 C 498.257 369.255, 464.551 389.709, 446.500 396.335 C 429.863 402.441, 423.752 403.499, 405.103 403.499 C 383.143 403.500, 383.436 403.208, 390.816 417.733 C 393.587 423.187, 397.647 433.466, 399.838 440.575 C 402.029 447.684, 405.423 458.675, 407.379 465 C 409.336 471.325, 412.761 486.850, 414.991 499.500 C 417.221 512.150, 419.898 527, 420.941 532.500 C 424.335 550.401, 424.378 548.720, 420.495 550.002 C 418.609 550.624, 415.941 552.470, 414.567 554.103 L 412.068 557.073 407.886 554.306 C 404.447 552.030, 402.691 551.562, 397.995 551.670 C 394.855 551.742, 390.950 552.492, 389.317 553.336 C 384.762 555.691, 379.328 562.308, 377.331 567.930 L 375.531 573 360.698 573 C 347.047 573, 345.905 572.861, 346.367 571.250 C 347.655 566.754, 349.140 542.920, 348.556 536.114 C 346.916 516.990, 340.158 495.405, 333.202 487.073 L 330.420 483.741 323.960 485.213 L 317.500 486.686 317.500 477.093 C 317.500 466.099, 314.947 457, 311.861 457 C 309.122 457, 308.936 458.325, 310.936 463.595 C 313.564 470.518, 314.465 479.061, 313.027 483.417 C 312.377 485.388, 311.542 487.014, 311.172 487.031 C 310.803 487.048, 307.125 487.521, 303 488.082 C 292.906 489.455, 266.423 489.402, 250.680 487.978 C 237.275 486.766, 233 487.112, 233 489.412 C 233 491.442, 235.082 491.945, 247.889 493.006 C 263.743 494.320, 289.162 494.160, 302.750 492.661 C 308.938 491.978, 314 491.720, 314 492.087 C 314 492.455, 313.255 493.373, 312.345 494.128 C 310.005 496.069, 308 501.315, 308 505.500 C 308 513.507, 312.489 518.689, 321.606 521.205 L 325.712 522.338 321.624 525.457 C 316.148 529.633, 313.327 536.778, 314.975 542.298 C 316.269 546.632, 320.385 549.678, 326.250 550.640 C 328.313 550.979, 330 551.424, 330 551.630 C 330 551.837, 328.203 553.628, 326.007 555.612 C 321.588 559.605, 319.343 565.246, 320.437 569.606 C 320.822 571.139, 322.713 573.879, 324.640 575.696 L 328.142 579 293.321 578.996 C 244.172 578.990, 215.622 576.177, 200.591 569.858 C 193.607 566.922, 182.754 559.526, 177.804 554.330 C 176.322 552.774, 173.955 548.890, 172.544 545.699 L 169.980 539.898 165.740 542.529 C 157.853 547.422, 146.531 552.198, 140.370 553.229 C 134.574 554.200, 133.961 554.104, 129.103 551.459 C 124.279 548.834, 119.790 544.235, 115.634 537.663 C 114.647 536.103, 114.080 534.587, 114.372 534.294 C 114.665 534.001, 114.221 533.078, 113.386 532.243 C 112.135 530.992, 111.203 530.922, 108.121 531.846 C 103.484 533.235, 99.673 532.247, 93.631 528.090 C 79.668 518.483, 76.205 502.774, 82.920 479.500 C 84.666 473.450, 86.325 467.829, 86.608 467.010 C 86.930 466.075, 88.619 468.220, 91.137 472.760 C 94.728 479.235, 96.764 481.443, 97.123 479.250 C 97.190 478.837, 97.527 473.913, 97.873 468.306 L 98.500 458.112 106.971 463.806 C 118.191 471.348, 126.775 480.001, 130.973 488 C 133.841 493.464, 134.453 495.798, 134.812 502.650 C 135.185 509.738, 134.932 511.418, 132.873 515.540 C 131.571 518.147, 128.817 522.199, 126.753 524.543 C 124.689 526.888, 123 529.493, 123 530.331 C 123 532.458, 127.534 535.797, 132.085 537.023 C 141.057 539.439, 160.939 533.250, 167.501 525.999 C 169.228 524.091, 169.531 522.193, 169.724 512.064 C 170.157 489.413, 176.581 476.517, 201.500 448.268 C 205.809 443.384, 218.990 432.552, 228.184 426.340 C 234.702 421.937, 247.630 412.012, 253.012 407.281 L 256.674 404.062 263.859 406.095 C 272.517 408.545, 276.500 408.358, 276.500 405.500 C 276.500 403.836, 274.317 402.736, 263.500 398.951 C 256.350 396.448, 248.025 393.126, 245 391.567 C 234.929 386.378, 214.574 374.685, 208.879 370.818 C 205.787 368.718, 202.637 367.009, 201.879 367.021 C 201.120 367.033, 196 370.679, 190.500 375.125 C 185 379.571, 176.900 385.604, 172.500 388.533 C 168.100 391.462, 162.543 395.225, 160.151 396.895 C 149.221 404.526, 125.127 411.007, 107.758 410.988 C 97.143 410.976, 96.051 410.780, 88.646 407.547 C 76.355 402.181, 70.897 398.407, 59.760 387.574 C 36.765 365.205, 23.027 338.144, 14.599 298.613 C 6.808 262.069, 7.402 231.064, 16.323 208.593 C 21.246 196.195, 25.459 189.725, 35.037 179.858 C 42.844 171.816, 44.563 170.593, 55.118 165.576 C 72.271 157.423, 88.901 153.024, 102.641 153.008 C 122.037 152.984, 148.545 166.593, 171.500 188.359 C 175.350 192.010, 178.752 194.998, 179.061 194.998 C 179.369 194.999, 180.449 192.188, 181.461 188.750 C 185.277 175.788, 194.038 161.959, 206.863 148.651 C 213.147 142.132, 229.259 128.736, 235.669 124.701 C 240.551 121.629, 260.404 113, 262.591 113 C 263.848 113, 263.800 112.596, 262.297 110.531 C 261.309 109.174, 259.600 108.054, 258.500 108.044 C 253.116 107.992, 230.737 120.349, 219.117 129.791 L 214.734 133.352 209.617 127.713 C 197.364 114.211, 182.409 104.557, 170 102.139 C 160.473 100.283, 150.791 99.946, 146 101.303 M 150 106.938 C 143.864 108.820, 134.680 114.400, 129.673 119.289 C 123.712 125.108, 117.452 136.257, 116.109 143.444 L 115.300 147.776 123.900 150.002 C 139.233 153.970, 156.201 163.736, 172.907 178.210 L 177.314 182.029 181.907 173.013 C 187.156 162.710, 195.601 151.423, 204.931 142.242 L 211.363 135.914 205.431 130.328 C 195.957 121.405, 185.345 113.246, 180.328 111.027 C 170.241 106.565, 157.027 104.784, 150 106.938 M 397.748 234.375 C 383.089 239.809, 376.292 255.544, 373.505 290.500 C 373.017 296.622, 373.199 298.947, 374.282 300.403 C 376.429 303.290, 378 301.438, 378 296.020 C 378 293.347, 379.108 284.711, 380.462 276.829 C 384.125 255.516, 387.912 246.914, 395.852 241.879 C 402.218 237.842, 407.702 237.921, 412.483 242.119 C 416.558 245.697, 422.563 255.906, 424.645 262.796 C 426.402 268.612, 428.636 282.770, 429.540 293.817 C 430.171 301.541, 430.403 302.203, 432.783 303.108 C 437.497 304.900, 438.533 302.466, 438.269 290.213 C 437.834 270.011, 435.032 258.646, 427.360 245.970 C 421.921 236.981, 416.889 233.645, 408.207 233.272 C 404.230 233.101, 399.973 233.550, 397.748 234.375 M 321.616 496.003 C 318.574 499.370, 318 500.731, 318 504.569 C 318 507.078, 318.463 509.997, 319.030 511.055 C 320.433 513.677, 325.201 515.994, 331.117 516.929 C 335.816 517.672, 336.013 517.612, 335.401 515.604 C 334.492 512.622, 325.855 492, 325.515 492 C 325.360 492, 323.605 493.801, 321.616 496.003 M 330.250 527.566 C 327.913 528.967, 325.993 530.200, 325.985 530.307 C 325.977 530.413, 325.345 532.294, 324.582 534.488 C 322.132 541.528, 325.128 544.596, 336.397 546.589 L 340.295 547.278 339.686 542.389 C 339.351 539.700, 338.776 534.688, 338.409 531.250 C 337.634 523.994, 336.822 523.627, 330.250 527.566 M 334.008 558.492 C 328.457 564.147, 327.938 568.830, 332.433 572.696 C 334.155 574.177, 335.627 574.773, 336.185 574.215 C 336.917 573.483, 339.981 557.837, 339.996 554.750 C 340.005 553.092, 338.203 554.217, 334.008 558.492 M 419.302 555.501 C 415.782 557.966, 415.555 561.958, 418.600 567.828 C 420.744 571.959, 421.786 573, 423.779 573 L 426.275 573 425.569 564.293 C 425.180 559.504, 424.642 555.229, 424.372 554.793 C 423.618 553.573, 421.664 553.846, 419.302 555.501 M 394.083 557.388 C 389.947 558.882, 384.748 564.657, 383.305 569.357 C 382.281 572.694, 382.341 572.818, 385.249 573.400 C 390.392 574.428, 412 574.093, 412 572.985 C 412 570.409, 405.386 560.655, 402.146 558.453 C 400.160 557.104, 398.303 556.034, 398.018 556.076 C 397.733 556.118, 395.962 556.708, 394.083 557.388" stroke="none" fill="#5b5555" fill-rule="evenodd"/><path d="M 150 106.938 C 143.864 108.820, 134.680 114.400, 129.673 119.289 C 123.712 125.108, 117.452 136.257, 116.109 143.444 L 115.300 147.776 123.900 150.002 C 139.233 153.970, 156.201 163.736, 172.907 178.210 L 177.314 182.029 181.907 173.013 C 187.156 162.710, 195.601 151.423, 204.931 142.242 L 211.363 135.914 205.431 130.328 C 195.957 121.405, 185.345 113.246, 180.328 111.027 C 170.241 106.565, 157.027 104.784, 150 106.938 M 352.268 113.558 C 327.895 121.739, 300.031 122.184, 270.873 114.856 L 262.247 112.689 255.373 115.438 C 242.096 120.750, 234.413 125.084, 225 132.573 C 201.661 151.140, 186.942 170.133, 181.461 188.750 C 180.449 192.188, 179.369 194.999, 179.061 194.998 C 178.752 194.998, 175.350 192.010, 171.500 188.359 C 148.545 166.593, 122.037 152.984, 102.641 153.008 C 88.901 153.024, 72.271 157.423, 55.118 165.576 C 44.563 170.593, 42.844 171.816, 35.037 179.858 C 30.342 184.695, 24.969 191.228, 23.098 194.376 C 7.997 219.779, 5.174 254.405, 14.599 298.613 C 23.027 338.144, 36.765 365.205, 59.760 387.574 C 70.897 398.407, 76.355 402.181, 88.646 407.547 C 96.051 410.780, 97.143 410.976, 107.758 410.988 C 125.127 411.007, 149.221 404.526, 160.151 396.895 C 162.543 395.225, 168.100 391.462, 172.500 388.533 C 176.900 385.604, 185 379.571, 190.500 375.125 C 196 370.679, 201.120 367.033, 201.879 367.021 C 202.637 367.009, 205.787 368.718, 208.879 370.818 C 214.574 374.685, 234.929 386.378, 245 391.567 C 248.025 393.126, 256.350 396.448, 263.500 398.951 C 274.317 402.736, 276.500 403.836, 276.500 405.500 C 276.500 408.358, 272.517 408.545, 263.859 406.095 L 256.674 404.062 253.012 407.281 C 247.630 412.012, 234.702 421.937, 228.184 426.340 C 218.990 432.552, 205.809 443.384, 201.500 448.268 C 183.921 468.196, 177.107 478.433, 172.946 491.165 C 170.406 498.938, 169.914 502.127, 169.724 512.064 C 169.531 522.193, 169.228 524.091, 167.501 525.999 C 163.004 530.968, 153.100 535.307, 142.325 537.028 C 134.740 538.240, 129.537 537.164, 125.157 533.478 C 122.298 531.073, 122.123 531.050, 118.361 532.610 C 113.393 534.669, 113.553 534.372, 115.634 537.663 C 119.790 544.235, 124.279 548.834, 129.103 551.459 C 133.961 554.104, 134.574 554.200, 140.370 553.229 C 146.531 552.198, 157.853 547.422, 165.740 542.529 L 169.980 539.898 172.544 545.699 C 173.955 548.890, 176.322 552.774, 177.804 554.330 C 182.754 559.526, 193.607 566.922, 200.591 569.858 C 215.622 576.177, 244.172 578.990, 293.321 578.996 L 328.142 579 324.640 575.696 C 322.713 573.879, 320.822 571.139, 320.437 569.606 C 319.343 565.246, 321.588 559.605, 326.007 555.612 C 328.203 553.628, 330 551.837, 330 551.630 C 330 551.424, 328.313 550.979, 326.250 550.640 C 320.385 549.678, 316.269 546.632, 314.975 542.298 C 313.327 536.778, 316.148 529.633, 321.624 525.457 L 325.712 522.338 321.606 521.205 C 312.489 518.689, 308 513.507, 308 505.500 C 308 501.315, 310.005 496.069, 312.345 494.128 C 313.255 493.373, 314 492.455, 314 492.087 C 314 491.720, 308.938 491.978, 302.750 492.661 C 289.162 494.160, 263.743 494.320, 247.889 493.006 C 235.082 491.945, 233 491.442, 233 489.412 C 233 487.112, 237.275 486.766, 250.680 487.978 C 266.423 489.402, 292.906 489.455, 303 488.082 C 307.125 487.521, 310.803 487.048, 311.172 487.031 C 311.542 487.014, 312.377 485.388, 313.027 483.417 C 314.465 479.061, 313.564 470.518, 310.936 463.595 C 308.936 458.325, 309.122 457, 311.861 457 C 314.947 457, 317.500 466.099, 317.500 477.093 L 317.500 486.686 323.960 485.213 L 330.420 483.741 333.202 487.073 C 340.158 495.405, 346.916 516.990, 348.556 536.114 C 349.140 542.920, 347.655 566.754, 346.367 571.250 C 345.905 572.861, 347.047 573, 360.698 573 L 375.531 573 377.331 567.930 C 379.328 562.308, 384.762 555.691, 389.317 553.336 C 390.950 552.492, 394.855 551.742, 397.995 551.670 C 402.691 551.562, 404.447 552.030, 407.886 554.306 L 412.068 557.073 414.567 554.103 C 415.941 552.470, 418.609 550.624, 420.495 550.002 C 424.378 548.720, 424.335 550.401, 420.941 532.500 C 419.898 527, 417.221 512.150, 414.991 499.500 C 412.761 486.850, 409.336 471.325, 407.379 465 C 405.423 458.675, 402.029 447.684, 399.838 440.575 C 397.647 433.466, 393.587 423.187, 390.816 417.733 C 383.436 403.208, 383.143 403.500, 405.103 403.499 C 423.752 403.499, 429.863 402.441, 446.500 396.335 C 464.551 389.709, 498.257 369.255, 517.854 353.032 C 533.960 339.700, 567.044 306.783, 574.169 297 C 596.492 266.352, 602.651 253.908, 605.505 233.680 C 606.295 228.081, 607.442 221.025, 608.054 218 C 608.666 214.975, 609.309 207.775, 609.482 202 C 609.655 196.225, 609.842 191.205, 609.898 190.845 C 609.954 190.485, 612.511 188.774, 615.580 187.042 C 619.902 184.603, 621.575 182.947, 623.001 179.696 C 625.707 173.528, 626.307 168.855, 625.012 164.044 C 622.790 155.794, 616.939 153.094, 607.899 156.148 C 603.319 157.696, 603.334 157.662, 606.016 160.517 C 607.712 162.323, 608.069 163.331, 607.287 164.113 C 604.306 167.094, 598.216 161.185, 590.680 148 C 584.408 137.028, 579.431 132.487, 572.543 131.454 C 568.714 130.880, 567.121 131.262, 561.323 134.142 C 556.003 136.786, 553.983 138.457, 551.823 142 C 545.573 152.255, 545.650 160.495, 552.062 167.452 C 554.942 170.576, 556 172.587, 556 174.936 C 556 178.954, 551.856 191.442, 548.244 198.307 C 546.741 201.163, 545.363 203.826, 545.181 204.224 C 544.999 204.623, 548.762 207.472, 553.543 210.556 C 559.779 214.579, 561.930 216.470, 561.154 217.246 C 560.147 218.253, 556.705 216.514, 545.304 209.242 C 543.204 207.902, 542.980 208.096, 540.159 213.686 C 538.536 216.900, 535.335 221.773, 533.046 224.515 L 528.883 229.500 535.424 235.628 C 541.585 241.399, 544.686 243.409, 551.325 245.934 C 554.789 247.250, 553.867 249.237, 550.189 248.383 C 544.479 247.057, 539.079 244.044, 532.672 238.609 L 526.011 232.958 519.755 237.799 C 516.315 240.462, 511.363 243.865, 508.750 245.362 C 506.137 246.859, 504 248.289, 504 248.540 C 504 249.998, 517.697 271.084, 520.566 274.042 C 524.403 278, 524.927 280, 522.127 280 C 519.376 280, 513.312 272.882, 506.103 261.191 C 502.593 255.498, 499.244 251.107, 498.624 251.382 C 492.174 254.248, 485.289 256.957, 484.405 256.976 C 481.944 257.030, 480.009 252.891, 477.170 241.500 C 475.525 234.900, 473.868 227.250, 473.487 224.500 C 470.055 199.720, 464.004 187.050, 444.354 163.500 C 432.008 148.704, 419.030 136.319, 407.928 128.736 C 397.276 121.462, 375.601 112.341, 364.500 110.462 C 363.400 110.276, 357.896 111.669, 352.268 113.558 M 397.748 234.375 C 383.089 239.809, 376.292 255.544, 373.505 290.500 C 373.017 296.622, 373.199 298.947, 374.282 300.403 C 376.429 303.290, 378 301.438, 378 296.020 C 378 293.347, 379.108 284.711, 380.462 276.829 C 384.125 255.516, 387.912 246.914, 395.852 241.879 C 402.218 237.842, 407.702 237.921, 412.483 242.119 C 416.558 245.697, 422.563 255.906, 424.645 262.796 C 426.402 268.612, 428.636 282.770, 429.540 293.817 C 430.171 301.541, 430.403 302.203, 432.783 303.108 C 437.497 304.900, 438.533 302.466, 438.269 290.213 C 437.834 270.011, 435.032 258.646, 427.360 245.970 C 421.921 236.981, 416.889 233.645, 408.207 233.272 C 404.230 233.101, 399.973 233.550, 397.748 234.375 M 223.500 582.035 C 227.460 582.876, 237.720 583.337, 236.917 582.637 C 236.688 582.438, 232.675 582.030, 228 581.730 C 222.067 581.351, 220.708 581.443, 223.500 582.035" stroke="none" fill="#989898" fill-rule="evenodd"/><path d="M 314.589 0.856 C 314.211 1.468, 313.244 4.182, 312.441 6.888 C 309.692 16.143, 299.234 28.029, 288.518 34.077 C 285.483 35.790, 283 37.359, 283 37.565 C 283 37.770, 285.400 39.474, 288.334 41.351 C 295.031 45.635, 298 49.360, 298 53.480 C 298 57.130, 296.094 59.227, 290.746 61.462 C 285.211 63.774, 284.112 63.426, 282.096 58.725 C 277.525 48.060, 264.220 38.221, 251.060 35.774 C 244.802 34.610, 242 35.503, 242 38.659 C 242 39.436, 246.085 54.336, 251.077 71.768 C 256.069 89.201, 260.317 104.757, 260.517 106.338 C 261.305 112.564, 265.905 114.638, 286.500 118.052 C 309.377 121.844, 332.094 120.212, 353.817 113.215 L 365.500 109.451 367.652 104.976 C 370.491 99.072, 386.238 41.702, 385.823 38.775 C 385.531 36.720, 384.969 36.502, 380 36.525 C 369.488 36.574, 358.323 44.663, 352.687 56.316 C 349.968 61.937, 349.767 62.110, 346.687 61.496 C 333.730 58.916, 329 56.159, 329 51.187 C 329 48.117, 331.416 45.476, 339.250 39.989 C 341.863 38.158, 344 36.343, 344 35.955 C 344 35.567, 342.704 34.991, 341.120 34.674 C 339.537 34.357, 335.374 31.907, 331.870 29.230 C 324.435 23.547, 319.632 16.298, 317.881 8.113 C 316.413 1.248, 315.538 -0.680, 314.589 0.856 M 356.186 11.497 C 352.412 14.673, 351.402 18.439, 353.477 21.606 C 355.469 24.645, 359.089 24.703, 362.445 21.750 C 366.059 18.570, 366.802 13.802, 364.104 11.104 C 361.373 8.373, 359.806 8.451, 356.186 11.497 M 266.455 12.455 C 263.502 15.407, 263.349 18.420, 265.935 22.661 C 268.374 26.661, 271.343 27.660, 274.549 25.560 C 279.061 22.603, 277.678 13.541, 272.343 11.110 C 269.145 9.653, 269.288 9.621, 266.455 12.455 M 310.477 24.028 C 306.593 28.871, 302.793 32.047, 294.077 37.736 C 293.845 37.888, 295.544 39.630, 297.853 41.607 C 305.024 47.744, 306.590 52.879, 303.059 58.671 C 299.819 63.985, 286.859 70.042, 282.018 68.506 C 280.982 68.177, 279.205 66.016, 278.070 63.704 C 273.536 54.471, 262.374 44.402, 254.016 42.005 C 250.153 40.897, 249.460 37.335, 260.809 76.913 L 269.530 107.326 276.015 109.165 C 279.582 110.177, 286.754 111.400, 291.953 111.883 C 303.877 112.991, 339.694 111.429, 346.500 109.503 C 360.989 105.404, 359.935 106.033, 361.529 100.534 C 362.331 97.765, 366.294 83.432, 370.334 68.682 L 377.681 41.863 375.090 42.497 C 368.397 44.134, 361.859 51.464, 357.693 62 C 354.674 69.637, 353.921 69.886, 344.052 66.495 C 333.304 62.803, 326.377 59.377, 324.638 56.894 C 321.346 52.194, 323.249 46.511, 330.067 40.674 L 334.187 37.148 331.344 35.602 C 326.708 33.081, 322.326 28.835, 318.660 23.310 L 315.216 18.120 310.477 24.028" stroke="none" fill="#cb2a2a" fill-rule="evenodd"/><path d="M 310.477 24.028 C 306.593 28.871, 302.793 32.047, 294.077 37.736 C 293.845 37.888, 295.544 39.630, 297.853 41.607 C 305.024 47.744, 306.590 52.879, 303.059 58.671 C 299.819 63.985, 286.859 70.042, 282.018 68.506 C 280.982 68.177, 279.205 66.016, 278.070 63.704 C 273.536 54.471, 262.374 44.402, 254.016 42.005 C 250.153 40.897, 249.460 37.335, 260.809 76.913 L 269.530 107.326 276.015 109.165 C 279.582 110.177, 286.754 111.400, 291.953 111.883 C 303.877 112.991, 339.694 111.429, 346.500 109.503 C 360.989 105.404, 359.935 106.033, 361.529 100.534 C 362.331 97.765, 366.294 83.432, 370.334 68.682 L 377.681 41.863 375.090 42.497 C 368.397 44.134, 361.859 51.464, 357.693 62 C 354.674 69.637, 353.921 69.886, 344.052 66.495 C 333.304 62.803, 326.377 59.377, 324.638 56.894 C 321.346 52.194, 323.249 46.511, 330.067 40.674 L 334.187 37.148 331.344 35.602 C 326.708 33.081, 322.326 28.835, 318.660 23.310 L 315.216 18.120 310.477 24.028" stroke="none" fill="#ef4444" fill-rule="evenodd"/></svg>